<?xml version="1.0" encoding="UTF-8"?>
<svg id="Layer_2" data-name="Layer 2" xmlns="http://www.w3.org/2000/svg" viewBox="0 0 320.82 153.42">
  <defs>
    <style>
      .cls-1 {
        fill: #fff;
      }
    </style>
  </defs>
  <g id="Layer_1-2" data-name="Layer 1">
    <g>
      <path class="cls-1" d="M0,100.11c0-.68.2-1.63.59-2.86L32.39,6.89c.78-2.3,1.83-4.02,3.15-5.17,1.32-1.14,3.42-1.72,6.3-1.72h13.56c1.81,0,3.31.2,4.51.59,1.2.39,2.2,1.21,3.01,2.45.81,1.24,1.31,2.1,1.5,2.56s.59,1.6,1.18,3.41l31.07,88.53c.39,1.22.59,2.08.59,2.56,0,2.69-1.86,4.03-5.57,4.03h-7.92c-.88,0-1.67-.02-2.38-.07-.71-.05-1.39-.25-2.05-.59-.66-.34-1.18-.65-1.57-.91-.39-.27-.85-.82-1.36-1.65-.51-.83-.91-1.53-1.21-2.09-.29-.56-.72-1.56-1.28-3.01-.56-1.44-1.01-2.68-1.36-3.74-.34-1.05-.89-2.65-1.65-4.8-.76-2.15-1.43-4.08-2.02-5.79H26.09c-.69,1.81-1.4,3.88-2.16,6.23s-1.33,4.07-1.72,5.17c-.39,1.1-.87,2.37-1.43,3.81-.56,1.44-1.04,2.47-1.43,3.08-.39.61-.87,1.29-1.43,2.05-.56.76-1.13,1.24-1.72,1.43-.59.2-1.29.39-2.09.59-.81.2-1.75.29-2.82.29h-5.57c-3.81,0-5.72-1.34-5.72-4.03ZM30.63,68.6h33.78c-10.21-29.22-15.83-45.83-16.86-49.83-.98,3.62-6.62,20.23-16.93,49.83Z"/>
      <path class="cls-1" d="M107.29,113.83c0-6.26,2.88-10.89,8.65-13.89-2.74-3.86-4.1-7.77-4.1-11.73,0-4.27,1.42-8.44,4.26-12.51l-.16-.3c-4.05-4.59-6.08-10.16-6.08-16.69,0-2.89.38-5.61,1.14-8.16.77-2.55,2.13-5.18,4.1-7.9,1.97-2.72,5.11-4.89,9.44-6.51,4.33-1.62,9.62-2.42,15.86-2.42h.44c4.03,0,7.47.33,10.33.99,2.85.66,4.97,1.29,6.34,1.91,1.37.61,2.26.91,2.65.91.28,0,1.34-.3,3.17-.91,1.83-.61,4.25-1.25,7.24-1.91,3-.66,5.89-.99,8.67-.99,1.42,0,2.32.38,2.71,1.15.39.77.83,2.64,1.32,5.6.1.79.22,1.44.37,1.93.1,1.93-.76,2.89-2.56,2.89-.2,0-.75-.07-1.65-.22s-2.14-.27-3.7-.37c-1.57-.1-3.25-.15-5.06-.15l-3.88.15c2.3,4.77,3.45,9.38,3.45,13.85,0,16.61-9.91,24.92-29.72,24.92-6.4,0-12.15-1.02-17.28-3.07-.62,1.14-.93,2.12-.93,2.91,0,4.84,3.03,7.28,9.09,7.33h13.22c3.76,0,6.8.05,9.12.14,2.32.1,5.15.36,8.51.8,3.35.43,6.04,1.14,8.07,2.13,2.03.99,4.05,2.3,6.08,3.94,2.03,1.63,3.51,3.78,4.45,6.42.94,2.65,1.41,5.8,1.41,9.46,0,8.72-4.54,14.84-13.6,18.37-5.45,2.11-13.22,3.16-23.3,3.16-2.23,0-4.08-.02-5.54-.07-1.46-.05-3.59-.17-6.4-.37-2.8-.2-5.24-.6-7.32-1.21-2.08-.61-4.29-1.37-6.62-2.28-2.33-.91-4.39-2.18-6.17-3.82-1.79-1.64-3.17-3.52-4.17-5.62-1.24-2.45-1.86-5.07-1.86-7.86ZM122.75,113.54c0,7.02,7.42,10.54,22.24,10.54h.59c5.53,0,9.97-.59,13.32-1.78,3.35-1.19,5.51-2.45,6.46-3.78.95-1.33,1.43-2.8,1.43-4.39,0-2.86-1.65-4.81-4.95-5.85-3.3-1.05-8.56-1.57-15.75-1.57h-14.75c-4.21,0-6.83,1.04-7.86,3.13-.49.97-.74,2.2-.74,3.71ZM129.93,59.8c0,4.18.67,7.34,2.01,9.48,1.34,2.14,4.23,3.21,8.66,3.21s7.46-.95,8.95-2.84c1.49-1.89,2.23-5.18,2.23-9.84v-2.4c0-4.28-.69-7.46-2.08-9.55-1.39-2.09-4.23-3.14-8.51-3.14s-7.35.95-8.91,2.84c-1.56,1.89-2.34,5.18-2.34,9.84v2.4Z"/>
      <path class="cls-1" d="M195.24,97.69v-56.29c0-2.88.62-4.73,1.87-5.54,1.24-.8,2.92-1.21,5.02-1.21h4.98c2.69,0,4.69.63,6.01,1.88.68.77,1.07,1.57,1.17,2.39.1.82.2,3.09.29,6.81,2.39-3.29,5.29-5.91,8.68-7.87,3.4-1.96,6.07-3.14,8.03-3.55,1.95-.41,3.69-.62,5.2-.62h.15c1.32,0,2.15.25,2.49.76.34.51.51,1.36.51,2.57v8.27c0,1.11-.25,2.01-.73,2.68-.59.49-1.91.87-3.96,1.14-2.05.27-3.89.65-5.5,1.14-3.42,1.23-6.37,3.09-8.87,5.59-2.49,2.5-4.1,5.39-4.84,8.67-.29,1.32-.44,3.23-.44,5.73v26.38c0,2.11-.15,3.48-.44,4.12-.29.64-1.05,1.47-2.27,2.5-1.22.59-2.61.88-4.18.88h-6.45c-2.69,0-4.48-.6-5.39-1.8-.9-1.19-1.36-2.75-1.36-4.65Z"/>
      <g>
        <path class="cls-1" d="M198.44,142.03v-27.26c0-1.26.68-1.9,2.05-1.9h17.3c.81,0,1.35.17,1.62.51.28.34.41.84.41,1.5v.68c0,1.34-.68,2.01-2.03,2.01-.09,0-.9-.01-2.44-.04-1.53-.03-3.36-.06-5.47-.09-2.11-.03-3.79-.04-5.02-.04v8.94h10.9c1.33,0,1.99.69,1.99,2.07,0,.66-.12,1.17-.36,1.52s-.49.56-.73.62c-.24.06-.57.09-.98.09h-10.81v11.48c0,1.32-.67,1.99-1.99,1.99h-2.34c-.84,0-1.4-.19-1.68-.56-.28-.38-.42-.88-.42-1.51Z"/>
        <path class="cls-1" d="M221.89,137.9c0-1.18.36-2.2,1.06-3.07s1.55-1.55,2.53-2.03c.98-.49,2.15-.87,3.5-1.16,1.35-.29,2.52-.48,3.5-.56.98-.09,1.98-.13,2.99-.13v-.92c0-1.26-.21-2.26-.64-2.99-.43-.73-1.28-1.1-2.57-1.1-1.18,0-2.26.15-3.22.46-.97.3-1.68.64-2.15,1.01s-.9.72-1.32,1.03c-.41.32-.71.48-.91.48l-.18-.03-.18-.09c-.09-.15-.17-.51-.25-1.1-.07-.59-.13-1.13-.16-1.61l-.07-.77c0-.15.01-.26.03-.33s.07-.16.17-.25c.09-.1.16-.16.2-.19.05-.03.18-.09.4-.18s.38-.16.51-.22c2.17-1.01,4.55-1.52,7.12-1.52,3.44,0,5.87.65,7.28,1.94,1.41,1.3,2.11,3.16,2.11,5.61v11.89c0,1.35-.68,2.03-2.05,2.03h-2.18c-.67,0-1.15-.18-1.44-.54-.29-.36-.44-.78-.44-1.27-2,1.53-4.34,2.3-7.01,2.32-2.03,0-3.65-.7-4.84-2.09-1.2-1.39-1.8-2.93-1.8-4.62ZM227.94,137.9c0,.87.29,1.65.86,2.35.57.7,1.32,1.05,2.25,1.05,1.03,0,2.02-.32,2.98-.97.96-.65,1.44-1.71,1.44-3.18v-3.53c-.92.09-1.72.18-2.39.29-.67.1-1.45.3-2.35.59s-1.6.72-2.07,1.31c-.48.59-.72,1.29-.72,2.1Z"/>
        <path class="cls-1" d="M245.6,142.16v-16.95c0-.87.18-1.42.56-1.67.37-.24.88-.36,1.51-.36h1.5c.81,0,1.41.19,1.81.57.21.24.32.47.35.72.03.25.06.93.09,2.05.72-.99,1.59-1.78,2.61-2.37,1.02-.59,1.83-.95,2.42-1.07.59-.12,1.11-.19,1.57-.19h.04c.4,0,.65.08.75.23s.16.41.16.78v2.49c0,.34-.07.6-.22.81-.17.15-.57.26-1.19.34-.62.08-1.17.2-1.65.34-1.03.37-1.92.93-2.67,1.68-.75.75-1.24,1.62-1.46,2.61-.09.4-.13.97-.13,1.73v7.94c0,.63-.04,1.05-.13,1.24-.09.19-.32.44-.68.75-.37.18-.79.26-1.26.26h-1.94c-.81,0-1.35-.18-1.62-.54-.28-.36-.41-.83-.41-1.4Z"/>
        <path class="cls-1" d="M262.35,142.07v-16.91c0-1.32.68-1.98,2.03-1.98h1.81c.3,0,.53.01.7.04.17.03.38.1.64.2.26.1.44.3.56.59.11.29.17.66.17,1.11v.9c.57-.54,1.03-.96,1.36-1.25.33-.29,1.09-.67,2.26-1.16,1.17-.49,2.42-.73,3.75-.73,1.78,0,3.15.26,4.12.8.97.53,1.69,1.38,2.14,2.56,1.87-2.24,4.38-3.35,7.53-3.35,1.3,0,2.39.16,3.27.47s1.55.68,1.99,1.09c.44.41.78,1,1.01,1.76.22.77.36,1.4.38,1.9s.05,1.2.05,2.1v11.85c0,.66-.14,1.17-.43,1.51-.29.35-.85.52-1.68.52h-1.99c-.24,0-.45-.01-.65-.04-.2-.03-.37-.07-.5-.13-.13-.06-.24-.13-.33-.21-.09-.08-.17-.18-.25-.28-.08-.1-.14-.19-.19-.26-.05-.07-.07-.19-.09-.34-.02-.16-.03-.25-.05-.3-.02-.04-.02-.14-.02-.28v-12.56c0-.57-.02-1.01-.05-1.32s-.13-.65-.29-1.04c-.16-.39-.44-.68-.82-.86-.38-.18-.9-.28-1.53-.28-1.24,0-2.27.38-3.08,1.15s-1.37,1.63-1.68,2.61c-.14.51-.22,1.3-.22,2.34v9.61c0,.11-.04.31-.11.6-.07.29-.17.53-.3.74-.13.21-.32.4-.58.59s-.6.28-.99.28h-2.06c-.84,0-1.4-.17-1.69-.52-.29-.34-.44-.85-.44-1.51v-12.58c0-1.17-.18-2.02-.54-2.52-.36-.51-1.05-.76-2.06-.76-1.33,0-2.49.5-3.49,1.51s-1.5,2.42-1.5,4.23v10.13c0,1.35-.68,2.03-2.03,2.03h-2.03c-1.41,0-2.12-.68-2.12-2.03Z"/>
        <path class="cls-1" d="M300.16,124.53c0-.75.52-1.13,1.55-1.13h1.55c1.09,0,1.9.36,2.43,1.08.14.15.59,1,1.33,2.55.75,1.55,1.54,3.42,2.38,5.61.84,2.19,1.37,3.94,1.57,5.27.11-1.56,1.25-5.53,3.38-11.89.48-1.15.9-1.85,1.26-2.11.48-.34,1.16-.51,2.03-.51h1.41c1.18,0,1.76.45,1.76,1.34,0,.23-.07.55-.2.95l-6.99,20.39c-.46,1.09-.81,1.83-1.05,2.23-2.02,3.4-4.76,5.1-8.21,5.1-1.9,0-3.04-.2-3.44-.6-.15-.15-.29-1.18-.44-3.1-.03-.57.05-.95.22-1.12l.22-.09h.18c.11.03.35.14.7.32.36.19.76.35,1.21.49.45.14.94.2,1.49.2.63,0,1.18-.14,1.65-.41s.85-.65,1.13-1.14c.28-.49.53-.99.74-1.51s.41-1.07.59-1.64c.06-.21.11-.38.16-.51.03-.26-.04-.55-.2-.86l-7.99-17.66c-.28-.62-.42-1.04-.42-1.28Z"/>
      </g>
      <g>
        <g>
          <path class="cls-1" d="M278.75,60.63l1.79-3.93c.41-.91,1-1.73,1.76-2.39,1.33-1.16,3.64-2.36,7.12-1.63.63.13,1.25.35,1.84.61l3.49,1.57-1.44,3.16c-.86,1.9-2.31,3.49-4.17,4.44-1.57.8-3.54,1.24-5.63.31l-4.76-2.14Z"/>
          <path class="cls-1" d="M276.95,59.82l1.79-3.93c.41-.91.65-1.89.64-2.89,0-1.76-.62-4.28-3.47-6.39-.52-.39-1.09-.71-1.68-.97l-3.49-1.57-1.44,3.16c-.86,1.9-1.12,4.03-.61,6.04.43,1.7,1.4,3.47,3.48,4.41l4.76,2.14Z"/>
        </g>
        <g>
          <g>
            <path class="cls-1" d="M319.58,71.05c0,.98-.04,1.92-.12,2.82,0,.47-.04.98-.08,1.45-2.16.86-4.27,1.88-6.23,2.94-3.22,1.76-6.08,3.76-8.43,5.76-1.65-2.2-3.33-4.27-5.14-6.23,4.31-2.74,9.14-5.57,14.08-7.76,1.92-.86,3.88-1.65,5.84-2.27.04,1.1.08,2.16.08,3.29Z"/>
            <path class="cls-1" d="M318.92,61.64c-1.92.47-3.84,1.1-5.69,1.8-6.67,2.51-12.74,6.39-17.17,10.59-1.8-1.84-3.69-3.57-5.61-5.22,6.31-4.71,13.76-9.21,21.49-11.92,1.88-.67,3.76-1.22,5.65-1.61.12.43.24.9.35,1.37.08.24.16.47.2.71.24.94.43,1.92.59,2.94.08.43.16.9.2,1.33Z"/>
            <path class="cls-1" d="M281.59,105.79v.04c-.24,0-.43,0-.67-.04h.67Z"/>
            <path class="cls-1" d="M318.92,79.56c-.08.75-.24,1.45-.39,2.16-.27,1.49-.67,2.86-1.14,4.2-1.33,4-3.29,7.37-5.92,10.16-1.06-1.8-2.12-3.53-3.29-5.22-.67-1.06-1.37-2.08-2.08-3.1l1.06-.9c1.49-1.29,3.18-2.51,4.94-3.61,2.16-1.41,4.47-2.63,6.82-3.69Z"/>
          </g>
          <path class="cls-1" d="M314.49,47.36c-1.49-2.59-3.41-4.82-5.72-6.74-2.31-1.88-4.51-3.33-6.63-4.35-2.08-.98-4.55-1.76-7.37-2.35-2.86-.55-5.25-.86-7.21-.98-2-.08-4.27-.16-6.86-.16-4.59,0-8.78.59-12.55,1.73-3.8,1.18-7.41,3.1-10.82,5.8-3.41,2.71-6.08,6.63-8.04,11.72-.16.43-.31.86-.43,1.33,1.92.43,3.8.94,5.69,1.53l.04-.12c.04-.24.16-.51.2-.63,1.57-4.12,3.69-7.22,6.2-9.21,2.78-2.24,5.8-3.84,8.86-4.78,3.25-.98,6.9-1.49,10.86-1.49,2.55,0,4.74.08,6.51.16,1.76.08,3.96.39,6.35.86,2.39.47,4.43,1.14,6.04,1.88,1.65.82,3.49,2.04,5.41,3.57,1.84,1.53,3.25,3.22,4.39,5.18.98,1.69,1.8,3.84,2.51,6.51t.04.08c1.88-.67,3.76-1.22,5.65-1.61-.82-3.14-1.84-5.76-3.1-7.92Z"/>
          <path class="cls-1" d="M308.53,98.38c-2.39,1.57-4.94,2.9-7.69,4.08-.08,0-.12.04-.16.04-.82-1.61-1.73-3.18-2.74-4.74-10.43-16.82-28-29.8-45.13-35.6-1.92-.67-3.84-1.22-5.72-1.69.08-.47.16-.94.24-1.41.39-2,.86-3.92,1.53-5.69,1.92.43,3.8.94,5.69,1.53,18.9,5.65,37.25,17.61,51.05,38.66v.04c.98,1.53,2,3.14,2.94,4.78Z"/>
          <path class="cls-1" d="M295.06,102.91c-2.12.51-4.31.9-6.59,1.14h-.12c-.75.08-1.53.12-2.31.16-1.14-2.08-2.31-4-3.57-5.84-8.51-12.63-19.17-19.8-29.68-23.68-2.04-.78-4.08-1.41-6.08-1.96-.12-1.22-.16-2.51-.16-3.8v-1.18c0-.9.04-1.8.12-2.67,1.92.51,3.84,1.1,5.8,1.84,14.55,5.25,29.8,16.23,39.41,30.82,1.18,1.69,2.2,3.41,3.18,5.18Z"/>
          <path class="cls-1" d="M281.55,105.79h-.63c-.51,0-1.02-.04-1.53-.08-1.84-.12-3.61-.27-5.29-.55-2.27-.31-4.39-.78-6.39-1.41-2.98-.86-5.61-2.04-7.96-3.61-1.06-.59-2.04-1.33-2.98-2.2-.35-.27-.67-.55-.98-.9l-.04-.04c-2.35-2.08-4.27-4.71-5.72-7.76-.78-1.61-1.45-3.33-1.92-5.18-.55-1.84-.98-3.76-1.25-5.84,2.08.59,4.23,1.33,6.39,2.27,8.23,3.45,16.94,9.29,24.27,19.17,1.41,1.88,2.74,3.92,4.04,6.12Z"/>
        </g>
      </g>
    </g>
  </g>
</svg>