<?xml version="1.0" encoding="UTF-8"?>
<svg id="Layer_2" data-name="Layer 2" xmlns="http://www.w3.org/2000/svg" viewBox="0 0 54.54 26.08">
  <defs>
    <style>
      .cls-1 {
        fill: #a1b200;
      }

      .cls-2 {
        fill: #6d4b33;
      }

      .cls-3 {
        fill: #5da843;
      }
    </style>
  </defs>
  <g id="Layer_1-2" data-name="Layer 1">
    <g>
      <path class="cls-2" d="M0,17.02c0-.12.03-.28.1-.49L5.51,1.17c.13-.39.31-.68.54-.88.22-.19.58-.29,1.07-.29h2.3c.31,0,.56.03.77.1s.37.2.51.42c.14.21.22.36.26.44s.1.27.2.58l5.28,15.05c.07.21.1.35.1.44,0,.46-.32.69-.95.69h-1.35c-.15,0-.28,0-.4-.01-.12,0-.24-.04-.35-.1-.11-.06-.2-.11-.27-.16-.07-.05-.14-.14-.23-.28s-.16-.26-.2-.36c-.05-.1-.12-.27-.22-.51-.1-.24-.17-.46-.23-.64-.06-.18-.15-.45-.28-.82-.13-.37-.24-.69-.34-.98h-7.28c-.12.31-.24.66-.37,1.06s-.23.69-.29.88c-.07.19-.15.4-.24.65-.1.25-.18.42-.24.52-.07.1-.15.22-.24.35-.1.13-.19.21-.29.24-.1.03-.22.07-.36.1-.14.03-.3.05-.48.05h-.95c-.65,0-.97-.23-.97-.69ZM5.21,11.66h5.74c-1.74-4.97-2.69-7.79-2.87-8.47-.17.61-1.13,3.44-2.88,8.47Z"/>
      <path class="cls-2" d="M18.24,19.35c0-1.06.49-1.85,1.47-2.36-.47-.66-.7-1.32-.7-1.99,0-.73.24-1.43.72-2.13l-.03-.05c-.69-.78-1.03-1.73-1.03-2.84,0-.49.06-.95.19-1.39.13-.43.36-.88.7-1.34.33-.46.87-.83,1.6-1.11.74-.27,1.63-.41,2.7-.41h.08c.69,0,1.27.06,1.76.17.48.11.84.22,1.08.32.23.1.38.16.45.16.05,0,.23-.05.54-.16s.72-.21,1.23-.32,1-.17,1.47-.17c.24,0,.39.07.46.2.07.13.14.45.22.95.02.13.04.24.06.33.02.33-.13.49-.44.49-.03,0-.13-.01-.28-.04s-.36-.05-.63-.06c-.27-.02-.55-.02-.86-.02l-.66.02c.39.81.59,1.59.59,2.36,0,2.82-1.68,4.24-5.05,4.24-1.09,0-2.07-.17-2.94-.52-.11.19-.16.36-.16.5,0,.82.52,1.24,1.55,1.25h2.25c.64,0,1.16,0,1.55.02.39.02.88.06,1.45.14s1.03.19,1.37.36c.34.17.69.39,1.03.67.34.28.6.64.76,1.09s.24.99.24,1.61c0,1.48-.77,2.52-2.31,3.12-.93.36-2.25.54-3.96.54-.38,0-.69,0-.94-.01s-.61-.03-1.09-.06c-.48-.03-.89-.1-1.24-.21s-.73-.23-1.13-.39c-.4-.15-.75-.37-1.05-.65-.3-.28-.54-.6-.71-.96-.21-.42-.32-.86-.32-1.34ZM20.87,19.3c0,1.19,1.26,1.79,3.78,1.79h.1c.94,0,1.69-.1,2.26-.3s.94-.42,1.1-.64.24-.48.24-.75c0-.49-.28-.82-.84-.99-.56-.18-1.45-.27-2.68-.27h-2.51c-.72,0-1.16.18-1.34.53-.08.16-.12.37-.12.63ZM22.09,10.16c0,.71.11,1.25.34,1.61.23.36.72.55,1.47.55s1.27-.16,1.52-.48c.25-.32.38-.88.38-1.67v-.41c0-.73-.12-1.27-.35-1.62-.24-.36-.72-.53-1.45-.53s-1.25.16-1.51.48-.4.88-.4,1.67v.41Z"/>
      <path class="cls-2" d="M33.19,16.61V7.04c0-.49.11-.8.32-.94.21-.14.5-.2.85-.2h.85c.46,0,.8.11,1.02.32.12.13.18.27.2.41.02.14.03.53.05,1.16.41-.56.9-1,1.48-1.34.58-.33,1.03-.53,1.36-.6.33-.07.63-.1.88-.1h.02c.22,0,.37.04.42.13.06.09.09.23.09.44v1.41c0,.19-.04.34-.12.46-.1.08-.32.15-.67.19-.35.05-.66.11-.93.19-.58.21-1.08.52-1.51.95-.42.42-.7.92-.82,1.47-.05.22-.07.55-.07.97v4.48c0,.36-.02.59-.07.7-.05.11-.18.25-.39.42-.21.1-.44.15-.71.15h-1.1c-.46,0-.76-.1-.92-.31-.15-.2-.23-.47-.23-.79Z"/>
      <g>
        <path class="cls-1" d="M33.73,24.14v-4.63c0-.21.12-.32.35-.32h2.94c.14,0,.23.03.28.09.05.06.07.14.07.25v.12c0,.23-.12.34-.34.34-.01,0-.15,0-.42,0-.26,0-.57-.01-.93-.02-.36,0-.64,0-.85,0v1.52h1.85c.23,0,.34.12.34.35,0,.11-.02.2-.06.26s-.08.1-.12.1c-.04.01-.1.02-.17.02h-1.84v1.95c0,.23-.11.34-.34.34h-.4c-.14,0-.24-.03-.29-.1-.05-.06-.07-.15-.07-.26Z"/>
        <path class="cls-1" d="M37.72,23.44c0-.2.06-.37.18-.52.12-.15.26-.26.43-.35.17-.08.37-.15.59-.2.23-.05.43-.08.59-.1.17-.02.34-.02.51-.02v-.16c0-.21-.04-.38-.11-.51-.07-.12-.22-.19-.44-.19-.2,0-.38.03-.55.08-.16.05-.29.11-.37.17s-.15.12-.22.18c-.07.05-.12.08-.15.08h-.03s-.03-.02-.03-.02c-.02-.02-.03-.09-.04-.19-.01-.1-.02-.19-.03-.27v-.13s0-.04,0-.06.01-.03.03-.04c.02-.02.03-.03.03-.03,0,0,.03-.02.07-.03s.07-.03.09-.04c.37-.17.77-.26,1.21-.26.58,0,1,.11,1.24.33.24.22.36.54.36.95v2.02c0,.23-.12.35-.35.35h-.37c-.11,0-.2-.03-.24-.09-.05-.06-.07-.13-.07-.22-.34.26-.74.39-1.19.39-.35,0-.62-.12-.82-.35-.2-.24-.31-.5-.31-.79ZM38.75,23.44c0,.15.05.28.15.4.1.12.22.18.38.18.17,0,.34-.05.51-.17.16-.11.25-.29.25-.54v-.6c-.16.02-.29.03-.41.05-.11.02-.25.05-.4.1s-.27.12-.35.22c-.08.1-.12.22-.12.36Z"/>
        <path class="cls-1" d="M41.75,24.17v-2.88c0-.15.03-.24.1-.28.06-.04.15-.06.26-.06h.25c.14,0,.24.03.31.1.04.04.05.08.06.12,0,.04.01.16.02.35.12-.17.27-.3.44-.4.17-.1.31-.16.41-.18.1-.02.19-.03.27-.03h0c.07,0,.11.01.13.04s.03.07.03.13v.42c0,.06-.01.1-.04.14-.03.03-.1.04-.2.06-.11.01-.2.03-.28.06-.18.06-.33.16-.45.29-.13.13-.21.28-.25.44-.01.07-.02.17-.02.29v1.35c0,.11,0,.18-.02.21-.01.03-.05.08-.12.13-.06.03-.13.04-.21.04h-.33c-.14,0-.23-.03-.28-.09-.05-.06-.07-.14-.07-.24Z"/>
        <path class="cls-1" d="M44.6,24.15v-2.87c0-.23.12-.34.34-.34h.31c.05,0,.09,0,.12,0,.03,0,.07.02.11.03.04.02.08.05.1.1.02.05.03.11.03.19v.15c.1-.09.17-.16.23-.21.06-.05.18-.11.38-.2.2-.08.41-.12.64-.12.3,0,.54.04.7.14.17.09.29.23.36.44.32-.38.75-.57,1.28-.57.22,0,.41.03.56.08s.26.12.34.19c.08.07.13.17.17.3.04.13.06.24.07.32s0,.2,0,.36v2.01c0,.11-.02.2-.07.26-.05.06-.14.09-.29.09h-.34s-.08,0-.11,0c-.03,0-.06-.01-.08-.02-.02-.01-.04-.02-.06-.04-.01-.01-.03-.03-.04-.05-.01-.02-.02-.03-.03-.04,0-.01-.01-.03-.01-.06,0-.03,0-.04,0-.05,0,0,0-.02,0-.05v-2.13c0-.1,0-.17,0-.22s-.02-.11-.05-.18c-.03-.07-.07-.11-.14-.15-.07-.03-.15-.05-.26-.05-.21,0-.39.06-.52.19s-.23.28-.29.44c-.02.09-.04.22-.04.4v1.63s0,.05-.02.1c-.01.05-.03.09-.05.13-.02.04-.05.07-.1.1s-.1.05-.17.05h-.35c-.14,0-.24-.03-.29-.09-.05-.06-.08-.14-.08-.26v-2.14c0-.2-.03-.34-.09-.43-.06-.09-.18-.13-.35-.13-.23,0-.42.09-.59.26s-.25.41-.25.72v1.72c0,.23-.12.35-.35.35h-.34c-.24,0-.36-.12-.36-.35Z"/>
        <path class="cls-1" d="M51.02,21.17c0-.13.09-.19.26-.19h.26c.19,0,.32.06.41.18.02.02.1.17.23.43.13.26.26.58.41.95.14.37.23.67.27.9.02-.27.21-.94.58-2.02.08-.19.15-.31.21-.36.08-.06.2-.09.35-.09h.24c.2,0,.3.08.3.23,0,.04-.01.09-.03.16l-1.19,3.47c-.08.18-.14.31-.18.38-.34.58-.81.87-1.4.87-.32,0-.52-.03-.58-.1-.03-.02-.05-.2-.08-.53,0-.1,0-.16.04-.19h.04s.03-.01.03-.01c.02,0,.06.02.12.06.06.03.13.06.21.08.08.02.16.03.25.03.11,0,.2-.02.28-.07s.14-.11.19-.19c.05-.08.09-.17.13-.26s.07-.18.1-.28c0-.04.02-.06.03-.09,0-.04,0-.09-.03-.15l-1.36-3c-.05-.1-.07-.18-.07-.22Z"/>
      </g>
      <g>
        <g>
          <path class="cls-1" d="M47.38,10.31l.3-.67c.07-.15.17-.29.3-.41.23-.2.62-.4,1.21-.28.11.02.21.06.31.1l.59.27-.24.54c-.15.32-.39.59-.71.75-.27.14-.6.21-.96.05l-.81-.36Z"/>
          <path class="cls-1" d="M47.08,10.17l.3-.67c.07-.15.11-.32.11-.49,0-.3-.11-.73-.59-1.09-.09-.07-.18-.12-.28-.17l-.59-.27-.24.54c-.15.32-.19.68-.1,1.03.07.29.24.59.59.75l.81.36Z"/>
        </g>
        <g>
          <g>
            <path class="cls-2" d="M54.33,12.08c0,.17,0,.33-.02.48,0,.08,0,.17-.01.25-.37.15-.73.32-1.06.5-.55.3-1.03.64-1.43.98-.28-.37-.57-.73-.87-1.06.73-.47,1.55-.95,2.39-1.32.33-.15.66-.28.99-.39,0,.19.01.37.01.56Z"/>
            <path class="cls-1" d="M54.21,10.48c-.33.08-.65.19-.97.31-1.13.43-2.17,1.09-2.92,1.8-.31-.31-.63-.61-.95-.89,1.07-.8,2.34-1.57,3.65-2.03.32-.11.64-.21.96-.27.02.07.04.15.06.23.01.04.03.08.03.12.04.16.07.33.1.5.01.07.03.15.03.23Z"/>
            <path class="cls-3" d="M47.87,17.98h0s-.07,0-.11,0h.11Z"/>
            <path class="cls-2" d="M54.21,13.52c-.01.13-.04.25-.07.37-.05.25-.11.49-.19.71-.23.68-.56,1.25-1.01,1.73-.18-.31-.36-.6-.56-.89-.11-.18-.23-.35-.35-.53l.18-.15c.25-.22.54-.43.84-.61.37-.24.76-.45,1.16-.63Z"/>
          </g>
          <path class="cls-2" d="M53.46,8.05c-.25-.44-.58-.82-.97-1.15-.39-.32-.77-.57-1.13-.74-.35-.17-.77-.3-1.25-.4-.49-.09-.89-.15-1.23-.17-.34-.01-.73-.03-1.17-.03-.78,0-1.49.1-2.13.29-.65.2-1.26.53-1.84.99s-1.03,1.13-1.37,1.99c-.03.07-.05.15-.07.23.33.07.65.16.97.26v-.02s.03-.09.04-.11c.27-.7.63-1.23,1.05-1.57.47-.38.99-.65,1.51-.81.55-.17,1.17-.25,1.85-.25.43,0,.81.01,1.11.03.3.01.67.07,1.08.15s.75.19,1.03.32c.28.14.59.35.92.61.31.26.55.55.75.88.17.29.31.65.43,1.11t0,.01c.32-.11.64-.21.96-.27-.14-.53-.31-.98-.53-1.35Z"/>
          <path class="cls-1" d="M52.45,16.72c-.41.27-.84.49-1.31.69-.01,0-.02,0-.03,0-.14-.27-.29-.54-.47-.81-1.77-2.86-4.76-5.07-7.67-6.05-.33-.11-.65-.21-.97-.29.01-.08.03-.16.04-.24.07-.34.15-.67.26-.97.33.07.65.16.97.26,3.21.96,6.33,2.99,8.68,6.57h0c.17.27.34.54.5.82Z"/>
          <path class="cls-2" d="M50.16,17.49c-.36.09-.73.15-1.12.19h-.02c-.13.01-.26.02-.39.03-.19-.35-.39-.68-.61-.99-1.45-2.15-3.26-3.37-5.05-4.03-.35-.13-.69-.24-1.03-.33-.02-.21-.03-.43-.03-.65v-.2c0-.15,0-.31.02-.45.33.09.65.19.99.31,2.47.89,5.07,2.76,6.7,5.24.2.29.37.58.54.88Z"/>
          <path class="cls-1" d="M47.86,17.98h-.11c-.09,0-.17,0-.26-.01-.31-.02-.61-.05-.9-.09-.39-.05-.75-.13-1.09-.24-.51-.15-.95-.35-1.35-.61-.18-.1-.35-.23-.51-.37-.06-.05-.11-.09-.17-.15h0c-.4-.36-.73-.81-.97-1.33-.13-.27-.25-.57-.33-.88-.09-.31-.17-.64-.21-.99.35.1.72.23,1.09.39,1.4.59,2.88,1.58,4.13,3.26.24.32.47.67.69,1.04Z"/>
        </g>
      </g>
    </g>
  </g>
</svg>