<?xml version="1.0" encoding="UTF-8"?>
<svg id="Layer_2" data-name="Layer 2" xmlns="http://www.w3.org/2000/svg" viewBox="0 0 244.29 244.37">
  <defs>
    <style>
      .cls-1 {
        fill: #a1b200;
      }

      .cls-2 {
        fill: #6d4b33;
      }

      .cls-3 {
        fill: #5da843;
      }
    </style>
  </defs>
  <g id="Layer_1-2" data-name="Layer 1">
    <g>
      <g>
        <path class="cls-1" d="M107.68,93.17l5.99-13.16c1.38-3.04,3.36-5.79,5.89-7.98,4.46-3.87,12.18-7.89,23.81-5.45,2.12.45,4.18,1.15,6.16,2.04l11.67,5.25-4.82,10.58c-2.89,6.34-7.72,11.68-13.94,14.85-5.24,2.67-11.86,4.16-18.82,1.03l-15.93-7.17Z"/>
        <path class="cls-1" d="M101.66,90.46l5.99-13.16c1.38-3.04,2.16-6.33,2.15-9.66-.02-5.88-2.08-14.31-11.6-21.38-1.74-1.29-3.63-2.36-5.61-3.25l-11.67-5.25-4.82,10.58c-2.89,6.34-3.73,13.48-2.02,20.22,1.44,5.68,4.68,11.6,11.65,14.74l15.93,7.17Z"/>
      </g>
      <g>
        <g>
          <path class="cls-2" d="M244.29,128.02c0,3.28-.13,6.43-.39,9.44,0,1.57-.13,3.28-.26,4.85-7.21,2.89-14.3,6.3-20.86,9.84-10.76,5.9-20.33,12.59-28.2,19.28-5.51-7.35-11.15-14.3-17.18-20.86,14.43-9.18,30.56-18.63,47.09-25.97,6.43-2.89,12.99-5.51,19.54-7.61.13,3.67.26,7.22.26,11.02Z"/>
          <path class="cls-1" d="M242.06,96.54c-6.43,1.57-12.86,3.67-19.02,6.03-22.3,8.4-42.63,21.38-57.45,35.42-6.03-6.17-12.33-11.94-18.76-17.45,21.12-15.74,46.04-30.83,71.88-39.88,6.3-2.23,12.59-4.07,18.89-5.38.39,1.44.79,3.02,1.18,4.59.26.79.52,1.57.66,2.36.79,3.15,1.44,6.43,1.97,9.84.26,1.44.53,3.02.66,4.46Z"/>
          <path class="cls-3" d="M117.19,244.24v.13c-.79,0-1.44,0-2.23-.13h2.23Z"/>
          <path class="cls-2" d="M242.06,156.49c-.26,2.49-.79,4.85-1.31,7.21-.92,4.98-2.23,9.58-3.8,14.04-4.46,13.38-11.02,24.66-19.81,33.97-3.54-6.03-7.08-11.81-11.02-17.45-2.23-3.54-4.59-6.95-6.95-10.36l3.54-3.02c4.98-4.33,10.62-8.4,16.53-12.07,7.21-4.72,14.95-8.79,22.82-12.33Z"/>
        </g>
        <path class="cls-2" d="M227.24,48.8c-4.98-8.66-11.41-16.13-19.15-22.56-7.74-6.3-15.08-11.15-22.17-14.56-6.95-3.28-15.22-5.9-24.66-7.87-9.58-1.84-17.58-2.89-24.14-3.28-6.69-.26-14.3-.53-22.96-.53-15.35,0-29.38,1.97-41.98,5.77-12.72,3.94-24.79,10.36-36.2,19.41-11.41,9.05-20.33,22.17-26.89,39.22-.53,1.44-1.05,2.89-1.44,4.46,6.43,1.44,12.72,3.15,19.02,5.12l.13-.39c.13-.79.53-1.71.66-2.1,5.25-13.77,12.33-24.14,20.73-30.83,9.31-7.48,19.41-12.86,29.65-16,10.89-3.28,23.09-4.98,36.34-4.98,8.53,0,15.87.26,21.77.53,5.9.26,13.25,1.31,21.25,2.89,8,1.57,14.82,3.8,20.2,6.3,5.51,2.75,11.67,6.82,18.1,11.94,6.17,5.12,10.89,10.76,14.69,17.31,3.28,5.64,6.03,12.85,8.39,21.77q0,.13.13.26c6.3-2.23,12.59-4.07,18.89-5.38-2.75-10.49-6.16-19.28-10.36-26.5Z"/>
        <path class="cls-1" d="M207.3,219.45c-8,5.25-16.53,9.71-25.71,13.64-.26,0-.39.13-.52.13-2.75-5.38-5.77-10.62-9.18-15.87-34.89-56.27-93.66-99.69-150.98-119.11-6.43-2.23-12.85-4.07-19.15-5.64.26-1.57.52-3.15.79-4.72,1.31-6.69,2.89-13.12,5.12-19.02,6.43,1.44,12.72,3.15,19.02,5.12,63.23,18.89,124.61,58.9,170.79,129.34v.13c3.28,5.12,6.69,10.49,9.84,16Z"/>
        <path class="cls-2" d="M162.26,234.62c-7.08,1.71-14.43,3.02-22.04,3.8h-.39c-2.49.26-5.12.39-7.74.52-3.8-6.95-7.74-13.38-11.94-19.54-28.46-42.24-64.14-66.24-99.3-79.23-6.82-2.62-13.64-4.72-20.33-6.56-.39-4.07-.52-8.4-.52-12.72v-3.94c0-3.02.13-6.03.39-8.92,6.43,1.71,12.86,3.67,19.41,6.17,48.66,17.58,99.69,54.3,131.83,103.1,3.94,5.64,7.35,11.41,10.62,17.31Z"/>
        <path class="cls-1" d="M117.06,244.24h-2.1c-1.71,0-3.41-.13-5.12-.26-6.17-.39-12.07-.92-17.71-1.84-7.61-1.05-14.69-2.62-21.38-4.72-9.97-2.89-18.76-6.82-26.63-12.07-3.54-1.97-6.82-4.46-9.97-7.35-1.18-.92-2.23-1.84-3.28-3.02l-.13-.13c-7.87-6.95-14.3-15.74-19.15-25.97-2.62-5.38-4.85-11.15-6.43-17.31-1.84-6.17-3.28-12.59-4.2-19.54,6.95,1.97,14.17,4.46,21.38,7.61,27.55,11.54,56.67,31.09,81.2,64.14,4.72,6.3,9.18,13.12,13.51,20.46Z"/>
      </g>
    </g>
  </g>
</svg>